# 
# Wavefront OBJ file
# Created with Kaydara FBX
# 
mtllib gamelevel.mtl

g renderMesh0
v 8.000000 64.000000 -128.000000
v 8.000000 64.000000 128.000000
v 8.000000 32.000000 24.000000
v 8.000000 -64.000000 128.000000
v 8.000000 -64.000000 24.000000
v 8.000000 32.000000 -24.000000
v 8.000000 -64.000000 -128.000000
v 8.000000 -64.000000 -24.000000
v 0.000000 64.000000 128.000000
v -0.000000 64.000000 -128.000000
v -0.000000 32.000000 -24.000000
v -0.000000 -64.000000 -128.000000
v 0.000000 -64.000000 -24.000000
v -0.000000 32.000000 24.000000
v 0.000000 -64.000000 128.000000
v 0.000000 -64.000000 24.000000
v -0.000000 64.000000 -128.000000
v -256.000000 64.000000 -128.000000
v -256.000000 -64.000000 -128.000000
v -0.000000 -64.000000 -128.000000
v 0.000000 -64.000000 128.000000
v -256.000000 -64.000000 128.000000
v -256.000000 64.000000 128.000000
v 0.000000 64.000000 128.000000
v 208.000000 64.000000 -128.000000
v 8.000000 64.000000 -128.000000
v 8.000000 -64.000000 -128.000000
v 208.000000 -64.000000 -128.000000
v 208.000000 -64.000000 128.000000
v 8.000000 -64.000000 128.000000
v 8.000000 64.000000 128.000000
v 208.000000 64.000000 128.000000
v 208.000000 64.000000 128.000000
v 208.000000 64.000000 -128.000000
v 208.000000 -64.000000 -128.000000
v 208.000000 -64.000000 128.000000
v -256.000000 -64.000000 128.000000
v -256.000000 -64.000000 -128.000000
v -256.000000 64.000000 -128.000000
v -256.000000 64.000000 128.000000
v -0.000000 64.000000 -128.000000
v 0.000000 64.000000 128.000000
v -256.000000 64.000000 128.000000
v -256.000000 64.000000 -128.000000
v -256.000000 -64.000000 -128.000000
v -256.000000 -64.000000 128.000000
v 0.000000 -64.000000 128.000000
v -0.000000 -64.000000 -128.000000
v 208.000000 64.000000 -128.000000
v 208.000000 64.000000 128.000000
v 8.000000 64.000000 128.000000
v 8.000000 64.000000 -128.000000
v 8.000000 -64.000000 -128.000000
v 8.000000 -64.000000 128.000000
v 208.000000 -64.000000 128.000000
v 208.000000 -64.000000 -128.000000
vt -1.000000 1.000000
vt 1.000000 1.000000
vt 0.187500 0.750000
vt 0.187500 0.750000
vt 1.000000 1.000000
vt 1.000000 -0.000000
vt 0.187500 0.750000
vt 1.000000 -0.000000
vt 0.187500 -0.000000
vt -1.000000 1.000000
vt 0.187500 0.750000
vt -0.187500 0.750000
vt -1.000000 1.000000
vt -0.187500 0.750000
vt -1.000000 -0.000000
vt -1.000000 -0.000000
vt -0.187500 0.750000
vt -0.187500 -0.000000
vt 1.000000 1.000000
vt -1.000000 1.000000
vt -0.187500 0.750000
vt -0.187500 0.750000
vt -1.000000 1.000000
vt -1.000000 -0.000000
vt -0.187500 0.750000
vt -1.000000 -0.000000
vt -0.187500 -0.000000
vt 1.000000 1.000000
vt -0.187500 0.750000
vt 0.187500 0.750000
vt 1.000000 1.000000
vt 0.187500 0.750000
vt 1.000000 -0.000000
vt 1.000000 -0.000000
vt 0.187500 0.750000
vt 0.187500 -0.000000
vt 1.000000 1.000000
vt -1.000000 1.000000
vt -1.000000 -0.000000
vt 1.000000 1.000000
vt -1.000000 -0.000000
vt 1.000000 -0.000000
vt 1.000000 -0.000000
vt -1.000000 -0.000000
vt -1.000000 1.000000
vt 1.000000 -0.000000
vt -1.000000 1.000000
vt 1.000000 1.000000
vt 2.625000 1.000000
vt 1.062500 1.000000
vt 1.062500 -0.000000
vt 2.625000 1.000000
vt 1.062500 -0.000000
vt 2.625000 -0.000000
vt 2.625000 -0.000000
vt 1.062500 -0.000000
vt 1.062500 1.000000
vt 2.625000 -0.000000
vt 1.062500 1.000000
vt 2.625000 1.000000
vt 1.000000 1.000000
vt -1.000000 1.000000
vt -1.000000 -0.000000
vt 1.000000 1.000000
vt -1.000000 -0.000000
vt 1.000000 -0.000000
vt 1.000000 -0.000000
vt -1.000000 -0.000000
vt -1.000000 1.000000
vt 1.000000 -0.000000
vt -1.000000 1.000000
vt 1.000000 1.000000
vt -4.000000 4.000000
vt 4.000000 4.000000
vt 4.000000 -4.000000
vt -4.000000 4.000000
vt 4.000000 -4.000000
vt -4.000000 -4.000000
vt -4.000000 -4.000000
vt 4.000000 -4.000000
vt 4.000000 4.000000
vt -4.000000 -4.000000
vt 4.000000 4.000000
vt -4.000000 4.000000
vt -4.000000 10.500000
vt 4.000000 10.500000
vt 4.000000 4.250000
vt -4.000000 10.500000
vt 4.000000 4.250000
vt -4.000000 4.250000
vt -4.000000 4.250000
vt 4.000000 4.250000
vt 4.000000 10.500000
vt -4.000000 4.250000
vt 4.000000 10.500000
vt -4.000000 10.500000
vn 1.000000 0.000000 -0.000000
vn 1.000000 0.000000 -0.000000
vn 1.000000 0.000000 -0.000000
vn 1.000000 0.000000 -0.000000
vn 1.000000 0.000000 -0.000000
vn 1.000000 0.000000 -0.000000
vn 1.000000 0.000000 -0.000000
vn 1.000000 0.000000 -0.000000
vn -1.000000 -0.000000 0.000000
vn -1.000000 -0.000000 0.000000
vn -1.000000 -0.000000 0.000000
vn -1.000000 -0.000000 0.000000
vn -1.000000 -0.000000 0.000000
vn -1.000000 -0.000000 0.000000
vn -1.000000 -0.000000 0.000000
vn -1.000000 -0.000000 0.000000
vn 0.000000 0.000000 1.000000
vn 0.000000 0.000000 1.000000
vn 0.000000 0.000000 1.000000
vn 0.000000 0.000000 1.000000
vn -0.000000 0.000000 -1.000000
vn -0.000000 0.000000 -1.000000
vn -0.000000 0.000000 -1.000000
vn -0.000000 0.000000 -1.000000
vn 0.000000 0.000000 1.000000
vn 0.000000 0.000000 1.000000
vn 0.000000 0.000000 1.000000
vn 0.000000 0.000000 1.000000
vn -0.000000 0.000000 -1.000000
vn -0.000000 0.000000 -1.000000
vn -0.000000 0.000000 -1.000000
vn -0.000000 0.000000 -1.000000
vn -1.000000 -0.000000 0.000000
vn -1.000000 -0.000000 0.000000
vn -1.000000 -0.000000 0.000000
vn -1.000000 -0.000000 0.000000
vn 1.000000 0.000000 -0.000000
vn 1.000000 0.000000 -0.000000
vn 1.000000 0.000000 -0.000000
vn 1.000000 0.000000 -0.000000
vn 0.000000 -1.000000 -0.000000
vn 0.000000 -1.000000 -0.000000
vn 0.000000 -1.000000 -0.000000
vn 0.000000 -1.000000 -0.000000
vn -0.000000 1.000000 0.000000
vn -0.000000 1.000000 0.000000
vn -0.000000 1.000000 0.000000
vn -0.000000 1.000000 0.000000
vn 0.000000 -1.000000 -0.000000
vn 0.000000 -1.000000 -0.000000
vn 0.000000 -1.000000 -0.000000
vn 0.000000 -1.000000 -0.000000
vn -0.000000 1.000000 0.000000
vn -0.000000 1.000000 0.000000
vn -0.000000 1.000000 0.000000
vn -0.000000 1.000000 0.000000
usemtl materials_dev_reflectivity_30_vmat
f 1/1/1 2/2/2 3/3/3
f 3/4/3 2/5/2 4/6/4
f 3/7/3 4/8/4 5/9/5
f 1/10/1 3/11/3 6/12/6
f 1/13/1 6/14/6 7/15/7
f 7/16/7 6/17/6 8/18/8
f 9/19/9 10/20/10 11/21/11
f 11/22/11 10/23/10 12/24/12
f 11/25/11 12/26/12 13/27/13
f 9/28/9 11/29/11 14/30/14
f 9/31/9 14/32/14 15/33/15
f 15/34/15 14/35/14 16/36/16
f 17/37/17 18/38/18 19/39/19
f 17/40/17 19/41/19 20/42/20
f 21/43/21 22/44/22 23/45/23
f 21/46/21 23/47/23 24/48/24
f 25/49/25 26/50/26 27/51/27
f 25/52/25 27/53/27 28/54/28
f 29/55/29 30/56/30 31/57/31
f 29/58/29 31/59/31 32/60/32
f 33/61/33 34/62/34 35/63/35
f 33/64/33 35/65/35 36/66/36
f 37/67/37 38/68/38 39/69/39
f 37/70/37 39/71/39 40/72/40
usemtl materials_dev_dev_measuregeneric01b_vmat
f 41/73/41 42/74/42 43/75/43
f 41/76/41 43/77/43 44/78/44
f 45/79/45 46/80/46 47/81/47
f 45/82/45 47/83/47 48/84/48
f 49/85/49 50/86/50 51/87/51
f 49/88/49 51/89/51 52/90/52
f 53/91/53 54/92/54 55/93/55
f 53/94/53 55/95/55 56/96/56
