# 
# Wavefront OBJ file
# Created with Kaydara FBX
# 
mtllib hladoor.mtl

g renderMesh0
v 4.999986 96.000000 24.000000
v 4.999997 96.000000 -24.000000
v 3.999994 96.000000 -24.000000
v 3.999984 96.000000 24.000000
v -4.000002 96.000000 -24.000002
v -5.000002 96.000000 -24.000002
v -5.000013 96.000000 23.999996
v -4.000013 96.000000 24.000000
v 5.000012 -0.000005 -23.999994
v 4.000010 -0.000005 -23.999994
v 3.999994 96.000000 -24.000000
v 4.999997 96.000000 -24.000000
v 5.000002 -0.000002 24.000006
v 4.999986 96.000000 24.000000
v 3.999984 96.000000 24.000000
v 3.999999 -0.000002 24.000006
v -5.000002 96.000000 -24.000002
v -4.000002 96.000000 -24.000002
v -3.999986 -0.000005 -23.999996
v -4.999986 -0.000009 -23.999996
v -5.000013 96.000000 23.999996
v -4.999998 -0.000006 24.000002
v -3.999998 -0.000002 24.000006
v -4.000013 96.000000 24.000000
v -2.000012 92.000000 20.500000
v -2.000003 92.000000 -20.500002
v -2.000003 91.500000 -19.999998
v -2.000012 91.500000 19.999996
v 2.000002 0.500000 20.500006
v 2.000001 0.499997 20.000006
v 1.999982 91.500000 19.999996
v 1.999981 92.000000 20.500000
v -1.999993 0.499998 -20.499996
v -1.999992 0.499995 -19.999998
v -2.000003 91.500000 -19.999998
v -2.000003 92.000000 -20.500002
v 5.000002 -0.000002 24.000006
v 5.000002 -0.000003 21.169247
v 4.999987 92.764847 21.169241
v 4.999986 96.000000 24.000000
v 4.999987 92.000000 20.500000
v 5.000002 -0.000003 20.500006
v 3.999995 92.000000 20.500000
v 3.999999 -0.000003 20.500006
v 2.000002 0.500000 20.500006
v 1.999981 92.000000 20.500000
v 2.000002 -0.000003 20.500006
v -5.000012 92.849762 21.243534
v -4.999997 -0.000006 21.243540
v -4.999998 -0.000006 24.000002
v -5.000013 96.000000 23.999996
v -5.000012 92.000000 20.499996
v -4.999997 -0.000006 20.500002
v -4.000000 -0.000005 20.500004
v -4.000016 92.000000 20.499998
v -2.000002 0.499999 20.500006
v -2.000002 -0.000003 20.500006
v -2.000012 92.000000 20.500000
v 4.999997 92.764847 -21.169241
v 5.000012 -0.000005 -21.169235
v 5.000012 -0.000005 -23.999994
v 4.999997 96.000000 -24.000000
v 4.999997 92.000000 -20.500000
v 5.000012 -0.000005 -20.499994
v 4.000001 -0.000005 -20.499994
v 3.999998 92.000000 -20.500000
v 2.000011 0.499993 -20.499994
v 2.000011 -0.000005 -20.499994
v 1.999990 92.000000 -20.500000
v -4.999986 -0.000009 -23.999996
v -4.999987 -0.000009 -21.243534
v -5.000001 92.849762 -21.243540
v -5.000002 96.000000 -24.000002
v -5.000001 92.000000 -20.500002
v -4.999987 -0.000009 -20.499996
v -3.999999 -0.000008 -20.499996
v -4.000013 92.000000 -20.500002
v -1.999993 0.499998 -20.499996
v -2.000003 92.000000 -20.500002
v -1.999993 -0.000005 -20.499996
v 1.000005 0.499997 20.000006
v 0.999990 91.500000 19.999996
v 1.999982 91.500000 19.999996
v 2.000001 0.499997 20.000006
v -1.000002 0.499997 20.000006
v -1.000016 91.500000 19.999996
v -2.000012 91.500000 19.999996
v -2.000001 0.499997 20.000006
v -2.000002 0.499999 20.500006
v -2.000012 92.000000 20.500000
v 2.000010 0.499995 -19.999996
v 1.999990 91.500000 -19.999998
v 0.999999 91.500000 -19.999998
v 2.000011 0.499993 -20.499994
v 1.999990 92.000000 -20.500000
v 1.000014 0.499995 -19.999996
v -1.000008 91.500000 -19.999998
v -0.999993 0.499995 -19.999996
v -2.000003 91.500000 -19.999998
v -1.999992 0.499995 -19.999998
v 4.999986 96.000000 24.000000
v 4.999987 92.764847 21.169241
v 4.999997 92.764847 -21.169241
v 4.999997 96.000000 -24.000000
v 4.999997 92.000000 -20.500000
v 4.999987 92.000000 20.500000
v 3.999995 92.000000 20.500000
v 3.999998 92.000000 -20.500000
v 1.999981 92.000000 20.500000
v 1.999990 92.000000 -20.500000
v -5.000013 96.000000 23.999996
v -5.000002 96.000000 -24.000002
v -5.000001 92.849762 -21.243540
v -5.000012 92.849762 21.243534
v -5.000012 92.000000 20.499996
v -5.000001 92.000000 -20.500002
v -4.000016 92.000000 20.499998
v -4.000013 92.000000 -20.500002
v -2.000003 92.000000 -20.500002
v -2.000012 92.000000 20.500000
v 1.999990 91.500000 -19.999998
v 1.999982 91.500000 19.999996
v 0.999990 91.500000 19.999996
v 1.999990 92.000000 -20.500000
v 1.999981 92.000000 20.500000
v 0.999999 91.500000 -19.999998
v -1.000008 91.500000 -19.999998
v -1.000016 91.500000 19.999996
v -2.000003 91.500000 -19.999998
v -2.000012 91.500000 19.999996
v 2.000001 0.499997 20.000006
v 2.000002 0.500000 20.500006
v 3.999995 -0.000003 20.500006
v 2.000010 0.499995 -19.999996
v 4.000004 -0.000005 -20.499994
v 2.000011 0.499993 -20.499994
v -4.000004 -0.000003 20.500004
v -2.000002 0.499999 20.500006
v -2.000001 0.499997 20.000006
v -1.999992 0.499995 -19.999998
v -3.999995 -0.000005 -20.499996
v -1.999993 0.499998 -20.499996
v 1.000005 0.499997 20.000006
v 2.000001 0.499997 20.000006
v 2.000010 0.499995 -19.999996
v 1.000014 0.499995 -19.999996
v -0.999993 0.499995 -19.999996
v -1.000002 0.499997 20.000006
v -2.000001 0.499997 20.000006
v -1.999992 0.499995 -19.999998
vt 1.107422 -0.090454
vt 1.600586 -0.090454
vt 1.600586 -0.008331
vt 1.107422 -0.008331
vt 0.591309 -0.006969
vt 0.591309 -0.089111
vt 1.083984 -0.089111
vt 1.083984 -0.006969
vt 2.603516 -0.088684
vt 2.603516 -0.006596
vt 1.617188 -0.006596
vt 1.617188 -0.088684
vt -0.396484 -0.088501
vt 0.588867 -0.088501
vt 0.588867 -0.006367
vt -0.396484 -0.006367
vt 0.573730 -0.088623
vt 0.573730 -0.006523
vt -0.411377 -0.006523
vt -0.411377 -0.088623
vt 0.010254 -0.088684
vt 0.995605 -0.088684
vt 0.995605 -0.006596
vt 0.010254 -0.006596
vt 1.047852 -0.395996
vt 0.626953 -0.395996
vt 0.632324 -0.416504
vt 1.042969 -0.416504
vt -0.391357 -0.396484
vt -0.391357 -0.416992
vt 0.542480 -0.416992
vt 0.547852 -0.396484
vt -0.406250 -0.396484
vt -0.406250 -0.417236
vt 0.527832 -0.417236
vt 0.532715 -0.396484
vt -0.396484 -0.088501
vt -0.396484 -0.204712
vt 0.555664 -0.204712
vt 0.588867 -0.088501
vt 0.547852 -0.232178
vt -0.396484 -0.232178
vt 0.547852 -0.286865
vt -0.396484 -0.286865
vt -0.391357 -0.396484
vt 0.547852 -0.396484
vt -0.396484 -0.396484
vt 0.042603 -0.201904
vt 0.995605 -0.201904
vt 0.995605 -0.088684
vt 0.010254 -0.088684
vt 0.051300 -0.232422
vt 0.995605 -0.232422
vt 0.995605 -0.287109
vt 0.051300 -0.287109
vt 0.990723 -0.396729
vt 0.995605 -0.396729
vt 0.051300 -0.396729
vt 1.650391 -0.204956
vt 2.603516 -0.204956
vt 2.603516 -0.088684
vt 1.617188 -0.088684
vt 1.658203 -0.232422
vt 2.603516 -0.232422
vt 2.603516 -0.287109
vt 1.658203 -0.287109
vt 2.597656 -0.396729
vt 2.603516 -0.396729
vt 1.658203 -0.396729
vt -0.411377 -0.088623
vt -0.411377 -0.201782
vt 0.541504 -0.201782
vt 0.573730 -0.088623
vt 0.532715 -0.232422
vt -0.411377 -0.232422
vt -0.411377 -0.287109
vt 0.532715 -0.287109
vt -0.406250 -0.396484
vt 0.532715 -0.396484
vt -0.411377 -0.396484
vt 0.990723 -0.540527
vt 0.056458 -0.540527
vt 0.056458 -0.581543
vt 0.990723 -0.581543
vt 0.990723 -0.458252
vt 0.056458 -0.458252
vt 0.056458 -0.417236
vt 0.990723 -0.417236
vt 0.990723 -0.396729
vt 0.051300 -0.396729
vt 2.597656 -0.417236
vt 1.664063 -0.417236
vt 1.664063 -0.458252
vt 2.597656 -0.396729
vt 1.658203 -0.396729
vt 2.597656 -0.458252
vt 1.664063 -0.540527
vt 2.597656 -0.540527
vt 1.664063 -0.581543
vt 2.597656 -0.581543
vt 1.107422 -0.090454
vt 1.136719 -0.205811
vt 1.571289 -0.205811
vt 1.600586 -0.090454
vt 1.564453 -0.233032
vt 1.143555 -0.233032
vt 1.143555 -0.287842
vt 1.564453 -0.287842
vt 1.143555 -0.397217
vt 1.564453 -0.397217
vt 1.083984 -0.089111
vt 0.591309 -0.089111
vt 0.619629 -0.201416
vt 1.055664 -0.201416
vt 1.047852 -0.231689
vt 0.626953 -0.231689
vt 1.047852 -0.286377
vt 0.626953 -0.286377
vt 0.626953 -0.395996
vt 1.047852 -0.395996
vt 1.559570 -0.417969
vt 1.148438 -0.417969
vt 1.148438 -0.458984
vt 1.564453 -0.397217
vt 1.143555 -0.397217
vt 1.559570 -0.458984
vt 1.559570 -0.541016
vt 1.148438 -0.541016
vt 1.559570 -0.582031
vt 1.148438 -0.582031
vt 0.431152 -0.968750
vt 0.436279 -0.968750
vt 0.436279 -0.803223
vt 0.020447 -0.968750
vt 0.015312 -0.803223
vt 0.015312 -0.968750
vt 0.860352 -0.967773
vt 0.860352 -0.802246
vt 0.855469 -0.802246
vt 0.444580 -0.802246
vt 0.439453 -0.967773
vt 0.439453 -0.802246
vt 0.433594 -0.653809
vt 0.433594 -0.612305
vt 0.023026 -0.612305
vt 0.023026 -0.653809
vt 0.023026 -0.735840
vt 0.433594 -0.735840
vt 0.433594 -0.776855
vt 0.023026 -0.776855
vn -0.000000 1.000000 0.000000
vn -0.000000 1.000000 0.000000
vn -0.000000 1.000000 0.000000
vn -0.000000 1.000000 0.000000
vn -0.000000 1.000000 0.000000
vn -0.000000 1.000000 0.000000
vn -0.000000 1.000000 0.000000
vn -0.000000 1.000000 0.000000
vn -0.000000 -0.016127 -0.999870
vn -0.000000 -0.016127 -0.999870
vn -0.000000 -0.016127 -0.999870
vn -0.000000 -0.016127 -0.999870
vn 0.000000 0.016127 0.999870
vn 0.000000 0.016127 0.999870
vn 0.000000 0.016127 0.999870
vn 0.000000 0.016127 0.999870
vn -0.000000 -0.016127 -0.999870
vn -0.000000 -0.016127 -0.999870
vn -0.000000 -0.016127 -0.999870
vn -0.000000 -0.016127 -0.999870
vn -0.016127 -0.000000 0.999870
vn -0.016127 -0.000000 0.999870
vn -0.016127 -0.000000 0.999870
vn -0.016127 -0.000000 0.999870
vn -1.000000 -0.000000 0.000000
vn -1.000000 -0.000000 0.000000
vn -0.835417 -0.549616 0.000000
vn -0.835417 -0.549616 0.000000
vn 0.999870 -0.000000 -0.016127
vn 0.695795 -0.000000 -0.718240
vn 0.818192 -0.000000 -0.574946
vn 0.999870 -0.000000 -0.016127
vn -0.999748 0.015869 0.015869
vn -0.706934 0.022092 0.706934
vn -0.825113 0.021714 0.564551
vn -0.999748 0.015869 0.015869
vn 0.999870 0.016127 -0.000000
vn 0.999870 0.016127 -0.000000
vn 0.999870 0.016127 -0.000000
vn 0.999870 0.016127 -0.000000
vn 0.835417 -0.000000 -0.549617
vn 0.695795 -0.000000 -0.718240
vn -0.000000 -0.016127 -0.999870
vn -0.000000 -0.016127 -0.999870
vn -0.000000 -0.016127 -0.999870
vn -0.000000 -0.016127 -0.999870
vn -0.000000 -0.016127 -0.999870
vn -1.000000 -0.000000 0.000000
vn -1.000000 -0.000000 0.000000
vn -1.000000 -0.000000 0.000000
vn -1.000000 -0.000000 0.000000
vn -0.851658 0.000000 -0.524097
vn -0.718240 0.000000 -0.695795
vn -0.000000 -0.016127 -0.999870
vn -0.000000 -0.016127 -0.999870
vn -0.000000 -0.016127 -0.999870
vn -0.000000 -0.016127 -0.999870
vn -0.000000 -0.016127 -0.999870
vn 0.999870 0.016127 -0.000000
vn 0.999870 0.016127 -0.000000
vn 0.999870 0.016127 -0.000000
vn 0.999870 0.016127 -0.000000
vn 0.845280 0.022244 0.533861
vn 0.706923 0.022804 0.706923
vn 0.000000 0.016127 0.999870
vn 0.000000 0.016127 0.999870
vn 0.000000 0.016127 0.999870
vn 0.000000 0.016127 0.999870
vn 0.000000 0.016127 0.999870
vn -1.000000 -0.000000 0.000000
vn -1.000000 -0.000000 0.000000
vn -1.000000 -0.000000 0.000000
vn -1.000000 -0.000000 0.000000
vn -0.841683 0.021582 0.539540
vn -0.706934 0.022092 0.706934
vn 0.000000 0.016127 0.999870
vn 0.000000 0.016127 0.999870
vn 0.000000 0.016127 0.999870
vn 0.000000 0.016127 0.999870
vn 0.000000 0.016127 0.999870
vn -0.000000 -0.016127 -0.999870
vn -0.000000 -0.016127 -0.999870
vn 0.818192 -0.000000 -0.574946
vn 0.695795 -0.000000 -0.718240
vn -0.000000 -0.016127 -0.999870
vn -0.000000 -0.016127 -0.999870
vn -0.835417 0.000000 -0.549617
vn -0.718240 0.000000 -0.695795
vn -1.000000 -0.000000 0.000000
vn -1.000000 -0.000000 0.000000
vn 0.706923 0.022804 0.706923
vn 0.828381 0.022389 0.559717
vn 0.000000 0.000000 1.000000
vn 0.999870 0.016127 -0.000000
vn 0.999870 0.016127 -0.000000
vn 0.000000 0.000000 1.000000
vn -0.016127 -0.000000 0.999870
vn -0.016127 -0.000000 0.999870
vn -0.825113 0.021714 0.564551
vn -0.706934 0.022092 0.706934
vn 0.999870 0.016127 -0.000000
vn 0.999870 0.016127 -0.000000
vn 0.999870 0.016127 -0.000000
vn 0.999870 0.016127 -0.000000
vn 0.828381 -0.559717 0.022389
vn 0.828381 -0.559717 0.022389
vn 0.000000 -1.000000 -0.000000
vn 0.000000 -1.000000 -0.000000
vn 0.000000 -1.000000 -0.000000
vn 0.000000 -1.000000 -0.000000
vn -1.000000 -0.000000 0.000000
vn -1.000000 -0.000000 0.000000
vn -1.000000 -0.000000 0.000000
vn -1.000000 -0.000000 0.000000
vn -0.835417 -0.549616 0.000000
vn -0.835417 -0.549616 0.000000
vn 0.000000 -1.000000 -0.000000
vn 0.000000 -1.000000 -0.000000
vn 0.000000 -1.000000 -0.000000
vn 0.000000 -1.000000 -0.000000
vn 0.828381 -0.559717 0.022389
vn 0.828381 -0.559717 0.022389
vn 0.000000 -1.000000 -0.000000
vn 0.999870 0.016127 -0.000000
vn 0.999870 0.016127 -0.000000
vn 0.000000 -1.000000 -0.000000
vn 0.000000 -1.000000 -0.000000
vn 0.000000 -1.000000 -0.000000
vn -0.835417 -0.549616 0.000000
vn -0.835417 -0.549616 0.000000
vn 0.229039 0.973417 -0.000000
vn 0.229039 0.973417 -0.000000
vn 0.229039 0.973417 -0.000000
vn 0.229039 0.973417 -0.000000
vn 0.229039 0.973417 -0.000000
vn 0.229039 0.973417 -0.000000
vn -0.251634 0.967822 0.000000
vn -0.251634 0.967822 0.000000
vn -0.251634 0.967822 0.000000
vn -0.251634 0.967822 0.000000
vn -0.251634 0.967822 0.000000
vn -0.251634 0.967822 0.000000
vn -0.000000 1.000000 0.000000
vn -0.000000 1.000000 0.000000
vn -0.000000 1.000000 0.000000
vn -0.000000 1.000000 0.000000
vn -0.000000 1.000000 0.000000
vn -0.000000 1.000000 0.000000
vn -0.000000 1.000000 0.000000
vn -0.000000 1.000000 0.000000
usemtl materials_models_architecture_doors_1_door_frame_basic_001_vmat
f 1/1/1 2/2/2 3/3/3
f 1/1/1 3/3/3 4/4/4
f 5/5/5 6/6/6 7/7/7
f 8/8/8 5/5/5 7/7/7
f 9/9/9 10/10/10 11/11/11
f 12/12/12 9/9/9 11/11/11
f 13/13/13 14/14/14 15/15/15
f 13/13/13 15/15/15 16/16/16
f 17/17/17 18/18/18 19/19/19
f 20/20/20 17/17/17 19/19/19
f 21/21/21 22/22/22 23/23/23
f 21/21/21 23/23/23 24/24/24
f 25/25/25 26/26/26 27/27/27
f 25/25/25 27/27/27 28/28/28
f 29/29/29 30/30/30 31/31/31
f 32/32/32 29/29/29 31/31/31
f 33/33/33 34/34/34 35/35/35
f 36/36/36 33/33/33 35/35/35
f 37/37/37 38/38/38 39/39/39
f 40/40/40 37/37/37 39/39/39
f 39/39/39 38/38/38 41/41/41
f 38/38/38 42/42/42 41/41/41
f 41/41/41 42/42/42 43/43/43
f 42/42/42 44/44/44 43/43/43
f 45/45/45 43/43/43 44/44/44
f 45/45/45 46/46/46 43/43/43
f 44/44/44 47/47/47 45/45/45
f 48/48/48 49/49/49 50/50/50
f 48/48/48 50/50/50 51/51/51
f 52/52/52 49/49/49 48/48/48
f 52/52/52 53/53/53 49/49/49
f 53/53/53 52/52/52 54/54/54
f 52/52/52 55/55/55 54/54/54
f 54/54/54 55/55/55 56/56/56
f 56/56/56 57/57/57 54/54/54
f 55/55/55 58/58/58 56/56/56
f 59/59/59 60/60/60 61/61/61
f 59/59/59 61/61/61 62/62/62
f 60/60/60 59/59/59 63/63/63
f 60/60/60 63/63/63 64/64/64
f 64/64/64 63/63/63 65/65/65
f 63/63/63 66/66/66 65/65/65
f 65/65/65 66/66/66 67/67/67
f 67/67/67 68/68/68 65/65/65
f 66/66/66 69/69/69 67/67/67
f 70/70/70 71/71/71 72/72/72
f 73/73/73 70/70/70 72/72/72
f 72/72/72 71/71/71 74/74/74
f 71/71/71 75/75/75 74/74/74
f 74/74/74 75/75/75 76/76/76
f 74/74/74 76/76/76 77/77/77
f 78/78/78 77/77/77 76/76/76
f 78/78/78 79/79/79 77/77/77
f 76/76/76 80/80/80 78/78/78
f 81/81/81 82/82/82 83/83/83
f 81/81/81 83/83/83 84/84/84
f 85/85/85 82/82/82 81/81/81
f 85/85/85 86/86/86 82/82/82
f 87/87/87 86/86/86 85/85/85
f 88/88/88 87/87/87 85/85/85
f 87/87/87 88/88/88 89/89/89
f 87/87/87 89/89/89 90/90/90
f 91/91/91 92/92/92 93/93/93
f 92/92/92 91/91/91 94/94/94
f 92/92/92 94/94/94 95/95/95
f 91/91/91 93/93/93 96/96/96
f 97/97/97 96/96/96 93/93/93
f 97/97/97 98/98/98 96/96/96
f 98/98/98 97/97/97 99/99/99
f 98/98/98 99/99/99 100/100/100
f 101/101/101 102/102/102 103/103/103
f 104/104/104 101/101/101 103/103/103
f 103/103/103 102/102/102 105/105/105
f 102/102/102 106/106/106 105/105/105
f 105/105/105 106/106/106 107/107/107
f 105/105/105 107/107/107 108/108/108
f 109/109/109 108/108/108 107/107/107
f 109/109/109 110/110/110 108/108/108
f 111/111/111 112/112/112 113/113/113
f 111/111/111 113/113/113 114/114/114
f 114/114/114 113/113/113 115/115/115
f 113/113/113 116/116/116 115/115/115
f 115/115/115 116/116/116 117/117/117
f 116/116/116 118/118/118 117/117/117
f 119/119/119 117/117/117 118/118/118
f 119/119/119 120/120/120 117/117/117
f 121/121/121 122/122/122 123/123/123
f 124/124/124 122/122/122 121/121/121
f 124/124/124 125/125/125 122/122/122
f 121/121/121 123/123/123 126/126/126
f 127/127/127 126/126/126 123/123/123
f 128/128/128 127/127/127 123/123/123
f 129/129/129 127/127/127 128/128/128
f 130/130/130 129/129/129 128/128/128
f 131/131/131 132/132/132 133/133/133
f 134/134/134 131/131/131 133/133/133
f 134/134/134 133/133/133 135/135/135
f 135/135/135 136/136/136 134/134/134
f 137/137/137 138/138/138 139/139/139
f 137/137/137 139/139/139 140/140/140
f 141/141/141 137/137/137 140/140/140
f 140/140/140 142/142/142 141/141/141
f 143/143/143 144/144/144 145/145/145
f 146/146/146 143/143/143 145/145/145
f 147/147/147 143/143/143 146/146/146
f 147/147/147 148/148/148 143/143/143
f 149/149/149 148/148/148 147/147/147
f 150/150/150 149/149/149 147/147/147
